# xmcd CD database file
#
# Track frame offsets:
#	150
#	18930
#	40005
#
# Disc length: 748 seconds
#
# Revision: 0
# Processed by: cddbd v1.5PL3 Copyright (c) Steve Scherf et al.
# Submitted via: CDex 1.51
#
DISCID=1602ea03
DTITLE=Paula Cole - I Don't Want To Wait
DYEAR=1997
DGENRE=Ballad
TTITLE0=I Don't Want To Wait(Edit)
TTITLE1=Bethlehem
TTITLE2=Hitler's Brothers
EXTD=YEAR: 1997
EXTT0=
EXTT1=
EXTT2=
PLAYORDER=
